<?xml version="1.0" encoding="utf-8"?>
<!-- Generator: Adobe Illustrator 24.0.0, SVG Export Plug-In . SVG Version: 6.00 Build 0)  -->
<svg version="1.1" id="Capa_1" xmlns="http://www.w3.org/2000/svg" xmlns:xlink="http://www.w3.org/1999/xlink" x="0px" y="0px"
	 viewBox="0 0 200 66.9" style="enable-background:new 0 0 200 66.9;" xml:space="preserve">
<style type="text/css">
	.st0{fill:#FF7D15;}
</style>
<g>
	<g>
		<g>
			<path d="M91,52c-0.6,0.3-1.1,0.6-1.9,0.8c-0.8,0.3-1.4,0.6-2.2,0.6c-0.8,0.3-1.7,0.3-2.5,0.3c-1.1,0-2.2-0.3-3-0.6
				c-0.8-0.3-1.7-1.1-2.2-1.9c-0.6-0.8-0.8-1.9-0.8-3.3V34.3h-3v-4.7h3v-7.7h6.1v7.7h5v4.7h-5v11.6c0,0.8,0.3,1.4,0.6,1.7
				c0.6,0.3,0.8,0.6,1.7,0.6c0.6,0,1.1,0,1.9-0.3c0.6-0.3,1.1-0.6,1.4-0.6L91,52z"/>
			<path d="M108.4,34.9c-1.9,0-3.6,0.3-5,1.1c-1.4,0.6-2.5,1.7-3,3v14.4h-6.1V29.9h5.5v5c0.8-1.7,1.9-3,3.3-3.9
				c1.4-0.8,2.8-1.4,4.1-1.7c0.3,0,0.6,0,0.8,0c0.3,0,0.3,0,0.6,0v5.5H108.4z"/>
			<path d="M110.1,46.2c0-1.7,0.6-2.8,1.4-3.9s1.9-1.9,3.6-2.8c1.7-0.6,3.3-0.8,5.3-0.8c1.1,0,1.9,0,3,0.3c1.1,0.3,1.9,0.3,2.8,0.8
				v-1.4c0-1.4-0.6-2.5-1.4-3.3s-2.2-1.1-3.9-1.1c-1.4,0-2.5,0.3-3.9,0.6c-1.1,0.6-2.5,1.1-3.6,1.9l-1.9-3.9c1.7-1.1,3-1.9,4.7-2.2
				c1.7-0.6,3.3-0.8,5.3-0.8c3.3,0,6.1,0.8,8,2.5c1.9,1.7,2.8,4.1,2.8,7.2v7.5c0,0.6,0,1.1,0.3,1.4c0.3,0.3,0.6,0.6,1.1,0.6v5
				c-0.6,0-1.1,0.3-1.4,0.3c-0.6,0-0.8,0-1.1,0c-1.1,0-2.2-0.3-2.8-0.8c-0.6-0.6-1.1-1.1-1.1-1.9v-1.1c-1.1,1.4-2.5,2.5-3.9,3
				c-1.7,0.8-3,1.1-4.7,1.1c-1.7,0-3-0.3-4.1-1.1c-1.4-0.6-2.2-1.7-3-2.8C110.4,49,110.1,47.6,110.1,46.2z M124.8,47.3
				c0.3-0.3,0.6-0.6,0.8-1.1c0.3-0.3,0.3-0.8,0.3-1.1v-2.2c-0.8-0.3-1.4-0.6-2.5-0.6c-0.8-0.3-1.7-0.3-2.5-0.3
				c-1.7,0-2.8,0.3-3.9,1.1c-1.1,0.6-1.4,1.7-1.4,2.8c0,0.6,0.3,1.1,0.6,1.7c0.3,0.6,0.8,1.1,1.4,1.4c0.6,0.3,1.4,0.6,2.2,0.6
				s1.7-0.3,2.8-0.6C123.7,48.4,124.2,47.9,124.8,47.3z"/>
			<path d="M143.3,53.1l-8.9-23.5h6.4l6.1,18l6.1-18h5.8l-8.9,23.5H143.3z"/>
			<path d="M172.1,53.7c-1.9,0-3.6-0.3-5.3-0.8s-2.8-1.7-3.9-2.8s-1.9-2.5-2.5-3.9c-0.6-1.4-0.8-3-0.8-4.7c0-2.2,0.6-4.1,1.4-6.1
				c1.1-1.9,2.5-3.3,4.4-4.4c1.9-1.1,4.1-1.7,6.6-1.7c2.5,0,4.7,0.6,6.6,1.7c1.9,1.1,3.3,2.5,4.1,4.4c1.1,1.9,1.4,3.9,1.4,6.1
				c0,0.3,0,0.8,0,1.1c0,0.3,0,0.6,0,0.8H166c0,1.1,0.6,2.2,1.1,3s1.4,1.7,2.2,1.9c0.8,0.6,1.9,0.8,3,0.8c1.1,0,2.5-0.3,3.6-0.8
				c1.1-0.6,1.9-1.4,2.2-2.5l5.3,1.4c-0.6,1.1-1.4,2.2-2.5,3.3c-1.1,0.8-2.2,1.7-3.9,2.2C175.7,53.4,174,53.7,172.1,53.7z M166,39.6
				h12.4c0-1.1-0.6-2.2-1.1-3c-0.6-0.8-1.4-1.7-2.2-1.9c-0.8-0.6-1.9-0.8-3-0.8c-1.1,0-2.2,0.3-3,0.8c-0.8,0.6-1.7,1.1-2.2,1.9
				C166.3,37.3,166,38.5,166,39.6z"/>
			<path d="M188.1,20.2h6.1v25.4c0,1.1,0.3,1.9,0.6,2.2c0.3,0.3,0.8,0.6,1.4,0.6s1.1,0,1.7-0.3c0.6,0,0.8-0.3,1.4-0.6l0.8,4.7
				c-0.8,0.3-1.7,0.8-2.8,0.8c-1.1,0.3-1.9,0.3-3,0.3c-1.9,0-3.3-0.6-4.4-1.7c-1.1-0.6-1.7-1.9-1.7-3.9V20.2z"/>
		</g>
		<g>
			<path class="st0" d="M47,18.5L11.3,47.9l-6.1,5c2.2,3.3,5,6.1,8.3,8.3l5-6.1l29.3-35.4l4.4-5.3L47,18.5z"/>
			<path class="st0" d="M55.9,16.9l-5.3,6.4c2.2,3.6,3.6,7.7,3.6,12.4C54.2,48.4,44,58.9,31,58.9l16-31.5L22.1,57.3l-5.3,6.4
				c3,1.7,6.6,2.8,10.2,3c1.4,0.3,2.5,0.3,3.9,0.3c17.2,0,31-13.8,31-31C62.2,28.5,59.8,21.9,55.9,16.9z"/>
			<path class="st0" d="M31,12.4c4.7,0,8.9,1.4,12.4,3.6l6.4-5.3C44.5,6.9,38.2,4.4,31,4.4c-17.2,0-31,13.8-31,31
				c0,1.4,0,2.5,0.3,3.9c0.6,3.6,1.4,6.9,3,10l6.4-5l21.9-18l8-6.9l-31.8,16C8,22.7,18.3,12.4,31,12.4z"/>
			<path class="st0" d="M60.3,6.4l-3.9,6.1c1.1,1.4,2.2,2.8,3,4.1L66.4,0L50.1,6.9c1.4,0.8,2.8,1.9,3.9,3.3L60.3,6.4z"/>
		</g>
	</g>
</g>
</svg>
