<?xml version="1.0" encoding="utf-8"?>
<!-- Generator: Adobe Illustrator 24.0.0, SVG Export Plug-In . SVG Version: 6.00 Build 0)  -->
<svg version="1.1" id="Capa_1" xmlns="http://www.w3.org/2000/svg" xmlns:xlink="http://www.w3.org/1999/xlink" x="0px" y="0px"
	 viewBox="0 0 200 200" style="enable-background:new 0 0 200 200;" xml:space="preserve">
<style type="text/css">
	.st0{fill:#24BE29;}
</style>
<g>
	<path class="st0" d="M173.4,100c0,5.8-0.7,11.7-2.1,17.5c-9.6,39.3-49.4,63.4-88.7,53.8c-39.3-9.6-63.4-49.4-53.8-88.7
		c4.7-19,16.5-35.1,33.2-45.3c16.8-10.2,36.5-13.2,55.5-8.5c4.1,1,8.2,2.4,12,4.1L140,8.7c-5.2-2.3-10.7-4.1-16.3-5.5
		C70.3-9.9,16.3,22.9,3.2,76.3c-13.1,53.4,19.7,107.4,73.1,120.5c7.9,1.9,15.9,2.9,23.9,2.9c18,0,35.7-4.9,51.5-14.5
		c22.8-13.8,38.8-35.6,45.1-61.5c1.9-7.8,2.9-15.8,2.9-23.7L173.4,100z"/>
	<path class="st0" d="M69.1,73.7l-20,17.1L90,138.7c2.5,2.9,6.1,4.6,9.9,4.6c0,0,0.1,0,0.1,0c3.8,0,7.4-1.6,9.9-4.4L196.4,41
		l-19.7-17.4l-76.5,86.5L69.1,73.7z"/>
</g>
</svg>
