<?xml version="1.0" encoding="utf-8"?>
<!-- Generator: Adobe Illustrator 24.0.0, SVG Export Plug-In . SVG Version: 6.00 Build 0)  -->
<svg version="1.1" id="Capa_1" xmlns="http://www.w3.org/2000/svg" xmlns:xlink="http://www.w3.org/1999/xlink" x="0px" y="0px"
	 viewBox="0 0 70 70" style="enable-background:new 0 0 70 70;" xml:space="preserve">
<style type="text/css">
	.st0{fill:#FF7D15;}
</style>
<g>
	<path class="st0" d="M49.4,19.4L12.2,50l-6.4,5.2c2.3,3.5,5.2,6.4,8.7,8.7l5.2-6.4l30.6-37l4.6-5.5L49.4,19.4z"/>
	<path class="st0" d="M58.7,17.7l-5.5,6.6c2.3,3.8,3.8,8.1,3.8,13c0,13.3-10.7,24.3-24.3,24.3l16.8-32.9l-26,31.2l-5.5,6.6
		c3.2,1.7,6.9,2.9,10.7,3.2c1.4,0.3,2.6,0.3,4,0.3c17.9,0,32.4-14.4,32.4-32.4C65.3,29.8,62.7,22.9,58.7,17.7z"/>
	<path class="st0" d="M32.7,13c4.9,0,9.2,1.4,13,3.8l6.6-5.5c-5.5-4-12.1-6.6-19.7-6.6C14.8,4.7,0.3,19.1,0.3,37c0,1.4,0,2.6,0.3,4
		c0.6,3.8,1.4,7.2,3.2,10.4l6.6-5.2l22.8-18.8l8.4-7.2L8.4,37C8.7,23.7,19.4,13,32.7,13z"/>
	<path class="st0" d="M63.3,6.7l-4,6.4c1.2,1.4,2.3,2.9,3.2,4.3L69.7,0L52.6,7.3c1.4,0.9,2.9,2,4,3.5L63.3,6.7z"/>
</g>
</svg>
